<svg xmlns="http://www.w3.org/2000/svg" viewBox="0 0 508 171">
<path d="M 42.00,168.50 L 3.00,168.50 L 1.50,167.00 L 1.50,3.00 L 3.00,1.50 L 82.00,1.50 L 86.00,2.50 L 95.00,5.50 L 113.00,15.50 L 126.50,28.00 L 131.50,35.00 L 137.50,47.00 L 143.50,71.00 L 143.50,97.00 L 142.50,98.00 L 140.50,111.00 L 137.50,120.00 L 136.00,121.50 L 126.00,119.50 L 116.50,115.00 L 120.50,103.00 L 121.50,91.00 L 122.50,90.00 L 121.50,69.00 L 119.50,60.00 L 114.50,48.00 L 110.50,42.00 L 101.00,32.50 L 87.00,24.50 L 73.00,20.50 L 67.00,20.50 L 66.00,19.50 L 23.00,19.50 L 20.50,22.00 L 20.50,145.00 L 23.00,147.50 L 66.00,147.50 L 75.00,145.50 L 77.50,148.00 L 81.50,162.00 L 81.50,164.00 L 78.00,166.50 L 72.00,166.50 L 71.00,167.50 L 43.00,167.50 L 42.00,168.50 Z" fill="#434547" fill-rule="nonzero"/>
<path d="M 217.00,168.50 L 175.00,168.50 L 160.00,163.50 L 153.50,159.00 L 153.50,141.00 L 156.00,139.50 L 164.00,144.50 L 176.00,148.50 L 198.00,150.50 L 199.00,149.50 L 207.00,149.50 L 214.00,147.50 L 220.00,144.50 L 225.50,140.00 L 229.50,134.00 L 231.50,127.00 L 231.50,22.00 L 229.00,19.50 L 184.00,19.50 L 182.50,18.00 L 182.50,3.00 L 184.00,1.50 L 252.00,1.50 L 253.50,3.00 L 253.50,124.00 L 252.50,125.00 L 252.50,132.00 L 249.50,142.00 L 241.50,155.00 L 232.00,162.50 L 217.00,168.50 Z" fill="#434547" fill-rule="nonzero"/>
<path d="M 314.00,168.50 L 296.00,168.50 L 294.50,167.00 L 294.50,3.00 L 296.00,1.50 L 314.00,1.50 L 315.50,3.00 L 315.50,167.00 L 314.00,168.50 Z" fill="#434547" fill-rule="nonzero"/>
<path d="M 504.00,168.50 L 486.00,168.50 L 484.50,167.00 L 469.50,133.00 L 469.50,131.00 L 466.00,127.50 L 380.00,127.50 L 376.50,131.00 L 364.50,161.00 L 360.00,168.50 L 340.00,168.50 L 338.50,167.00 L 364.50,108.00 L 364.50,106.00 L 368.50,99.00 L 374.50,83.00 L 378.50,76.00 L 384.50,60.00 L 388.50,53.00 L 391.50,44.00 L 395.50,37.00 L 401.50,21.00 L 405.50,14.00 L 408.50,5.00 L 411.00,1.50 L 435.00,1.50 L 436.50,3.00 L 486.50,118.00 L 486.50,120.00 L 490.50,127.00 L 499.50,150.00 L 503.50,157.00 L 505.50,162.00 L 505.50,167.00 L 504.00,168.50 Z" fill="#434547" fill-rule="nonzero"/>
<path d="M 122.00,168.50 L 102.00,168.50 L 94.50,162.00 L 91.50,156.00 L 90.50,149.00 L 88.50,145.00 L 87.50,138.00 L 82.50,122.00 L 82.50,119.00 L 84.00,117.50 L 122.00,127.50 L 126.00,129.50 L 131.50,135.00 L 134.50,141.00 L 134.50,145.00 L 135.50,146.00 L 134.50,154.00 L 130.50,162.00 L 126.00,166.50 L 122.00,168.50 Z" fill="#434547" fill-rule="nonzero"/>
</svg>