<svg width="151" height="90" viewBox="0 0 151 90" fill="none" xmlns="http://www.w3.org/2000/svg">
<g clip-path="url(#clip0_126_3679)">
<mask id="mask0_126_3679" style="mask-type:luminance" maskUnits="userSpaceOnUse" x="0" y="0" width="151" height="90">
<path d="M150.374 0H0V90H150.374V0Z" fill="#d6c1a1"/>
</mask>
<g mask="url(#mask0_126_3679)">
<path d="M26.0241 39.8107C24.1265 39.8107 22.5 40.7014 21.4544 42.0181V35.3959L15.9165 31.7943V54.9527H21.4544V47.5947C21.4544 45.8133 22.5387 44.5353 24.049 44.5353C25.4819 44.5353 26.179 45.3873 26.179 46.9363V54.9527H31.7169V45.9294C31.6781 42.0181 29.5482 39.8107 26.0241 39.8107Z" fill="#d6c1a1"/>
</g>
<mask id="mask1_126_3679" style="mask-type:luminance" maskUnits="userSpaceOnUse" x="0" y="0" width="151" height="90">
<path d="M150.374 0H0V90H150.374V0Z" fill="#d6c1a1"/>
</mask>
<g mask="url(#mask1_126_3679)">
<path d="M33.3823 47.2074C33.3823 42.7539 36.9451 39.4621 41.8634 39.4621C46.7816 39.4621 50.3445 42.7151 50.3445 47.1687C50.3445 51.6222 46.7816 54.9527 41.8247 54.9527C36.9064 54.9527 33.3823 51.6609 33.3823 47.2074ZM44.7679 47.2074C44.7679 45.3485 43.5674 44.0706 41.8247 44.0706C40.1594 44.0706 38.9202 45.3098 38.9202 47.1687C38.9202 49.0663 40.1594 50.383 41.8634 50.383C43.5286 50.383 44.7679 49.0663 44.7679 47.2074Z" fill="#d6c1a1"/>
</g>
<mask id="mask2_126_3679" style="mask-type:luminance" maskUnits="userSpaceOnUse" x="0" y="0" width="151" height="90">
<path d="M150.374 0H0V90H150.374V0Z" fill="#d6c1a1"/>
</mask>
<g mask="url(#mask2_126_3679)">
<path d="M77.6465 45.8907V54.9914H72.1086V46.9363C72.1086 45.4647 71.489 44.574 70.2885 44.574C68.8169 44.574 67.7326 45.8133 67.7326 47.5947V54.9527H62.1947V46.8976C62.1947 45.426 61.5751 44.5353 60.3358 44.5353C58.903 44.5353 57.8186 45.7745 57.8186 47.5559V54.9139H52.2808V40.1592H57.8186V42.0181C58.8642 40.7014 60.452 39.8107 62.3109 39.8107C64.6345 39.8107 66.3384 40.9337 67.1904 42.87C68.1973 41.0886 70.0174 39.8107 72.2248 39.8107C75.594 39.8107 77.6465 42.1342 77.6465 45.8907Z" fill="#d6c1a1"/>
</g>
<mask id="mask3_126_3679" style="mask-type:luminance" maskUnits="userSpaceOnUse" x="0" y="0" width="151" height="90">
<path d="M150.374 0H0V90H150.374V0Z" fill="#d6c1a1"/>
</mask>
<g mask="url(#mask3_126_3679)">
<path d="M84.888 48.6403C85.1978 50.1119 86.4758 50.8477 88.2572 50.8477C89.5739 50.8477 90.5421 50.383 91.3553 49.4923L94.4534 52.2418C92.9044 53.8684 90.9293 54.9527 88.0249 54.9527C83.1066 54.9527 79.5825 51.7384 79.5825 47.2462C79.5825 42.7926 82.8743 39.5396 87.8312 39.5396C92.2848 39.5396 95.3829 42.5215 95.3829 46.4716C95.3829 47.13 95.3054 47.7883 95.1118 48.6016H84.888V48.6403ZM84.888 46.0456H90.1548C89.9612 44.4966 89.0317 43.6833 87.6763 43.6833C86.166 43.6446 85.1591 44.574 84.888 46.0456Z" fill="#d6c1a1"/>
</g>
<mask id="mask4_126_3679" style="mask-type:luminance" maskUnits="userSpaceOnUse" x="0" y="0" width="151" height="90">
<path d="M150.374 0H0V90H150.374V0Z" fill="#d6c1a1"/>
</mask>
<g mask="url(#mask4_126_3679)">
<path d="M21.5706 61.8072V61.9234H25.6755V66.1833H21.5706V76.6781H16.0327V66.1446H13.5542V61.8847H16.0327V61.5749C16.0327 58.0508 18.3175 55.9595 21.8804 55.9595C24.0103 55.9595 25.6755 56.3081 26.5275 56.6566L25.753 60.6067C24.7461 60.2969 24.0103 60.1807 23.0034 60.1807C22.1127 60.2582 21.5706 60.6067 21.5706 61.8072Z" fill="#d6c1a1"/>
</g>
<mask id="mask5_126_3679" style="mask-type:luminance" maskUnits="userSpaceOnUse" x="0" y="0" width="151" height="90">
<path d="M150.374 0H0V90H150.374V0Z" fill="#d6c1a1"/>
</mask>
<g mask="url(#mask5_126_3679)">
<path d="M32.8787 61.9234H27.3408V76.6781H32.8787V61.9234Z" fill="#d6c1a1"/>
</g>
<mask id="mask6_126_3679" style="mask-type:luminance" maskUnits="userSpaceOnUse" x="0" y="0" width="151" height="90">
<path d="M150.374 0H0V90H150.374V0Z" fill="#d6c1a1"/>
</mask>
<g mask="url(#mask6_126_3679)">
<path d="M51.2735 67.6549V76.6781H45.7744V68.6618C45.7744 67.1127 45.0386 66.2608 43.6444 66.2608C42.1341 66.2608 41.011 67.5387 41.011 69.3201V76.6781H35.4731V61.9234H41.011V63.7823C42.0566 62.4268 43.6831 61.5361 45.6194 61.5361C49.1435 61.5361 51.2735 63.7435 51.2735 67.6549Z" fill="#d6c1a1"/>
</g>
<mask id="mask7_126_3679" style="mask-type:luminance" maskUnits="userSpaceOnUse" x="0" y="0" width="151" height="90">
<path d="M150.374 0H0V90H150.374V0Z" fill="#d6c1a1"/>
</mask>
<g mask="url(#mask7_126_3679)">
<path d="M59.2512 61.9234H53.7134V76.6781H59.2512V61.9234Z" fill="#d6c1a1"/>
</g>
<mask id="mask8_126_3679" style="mask-type:luminance" maskUnits="userSpaceOnUse" x="0" y="0" width="151" height="90">
<path d="M150.374 0H0V90H150.374V0Z" fill="#d6c1a1"/>
</mask>
<g mask="url(#mask8_126_3679)">
<path d="M60.7617 75.4776L62.3108 71.8373C64.0922 72.6119 65.9511 73.0766 68.0035 73.0766C68.9717 73.0766 69.6301 72.8829 69.6301 72.1859C69.6301 71.5663 69.0104 71.3339 67.1128 71.0628C62.8142 70.4432 61.149 69.2039 61.149 66.5318C61.149 63.3175 63.9373 61.5749 67.8486 61.5749C70.0173 61.5749 72.6507 62.1945 74.2772 63.0465L72.6507 66.6093C71.1017 65.9897 69.2815 65.5249 67.5776 65.5249C66.6094 65.5249 66.2996 65.8735 66.2996 66.2995C66.2996 66.7642 66.6869 66.9965 68.5844 67.3064C72.8831 67.9647 74.7419 69.2814 74.7419 71.9922C74.7419 75.2065 71.7987 77.0267 67.655 77.0267C64.8667 77.0267 62.5431 76.3296 60.7617 75.4776Z" fill="#d6c1a1"/>
</g>
<mask id="mask9_126_3679" style="mask-type:luminance" maskUnits="userSpaceOnUse" x="0" y="0" width="151" height="90">
<path d="M150.374 0H0V90H150.374V0Z" fill="#d6c1a1"/>
</mask>
<g mask="url(#mask9_126_3679)">
<path d="M92.4786 67.6549V76.6781H86.9407V68.6618C86.9407 67.1127 86.2436 66.2607 84.8108 66.2607C83.3004 66.2607 82.2161 67.5387 82.2161 69.3201V76.6781H76.6782V57.1988H82.2161V63.7823C83.2617 62.4268 84.8882 61.5749 86.7858 61.5749C90.3486 61.5361 92.4786 63.7435 92.4786 67.6549Z" fill="#d6c1a1"/>
</g>
<mask id="mask10_126_3679" style="mask-type:luminance" maskUnits="userSpaceOnUse" x="0" y="0" width="151" height="90">
<path d="M150.374 0H0V90H150.374V0Z" fill="#d6c1a1"/>
</mask>
<g mask="url(#mask10_126_3679)">
<path d="M100.456 61.9234H94.9185V76.6781H100.456V61.9234Z" fill="#d6c1a1"/>
</g>
<mask id="mask11_126_3679" style="mask-type:luminance" maskUnits="userSpaceOnUse" x="0" y="0" width="151" height="90">
<path d="M150.374 0H0V90H150.374V0Z" fill="#d6c1a1"/>
</mask>
<g mask="url(#mask11_126_3679)">
<path d="M118.813 67.6549V76.6781H113.313V68.6618C113.313 67.1127 112.578 66.2608 111.183 66.2608C109.673 66.2608 108.55 67.5387 108.55 69.3201V76.6781H103.012V61.9234H108.55V63.7823C109.596 62.4268 111.222 61.5361 113.159 61.5361C116.721 61.5361 118.813 63.7435 118.813 67.6549Z" fill="#d6c1a1"/>
</g>
<mask id="mask12_126_3679" style="mask-type:luminance" maskUnits="userSpaceOnUse" x="0" y="0" width="151" height="90">
<path d="M150.374 0H0V90H150.374V0Z" fill="#d6c1a1"/>
</mask>
<g mask="url(#mask12_126_3679)">
<path d="M129.539 72.6119C134.806 72.5344 136.704 74.0835 136.704 76.7169C136.704 79.7375 133.761 81.5964 127.99 81.5964C123.305 81.5964 120.981 80.3184 120.981 77.84C120.981 76.7169 121.755 75.8649 122.685 75.284C121.717 74.7418 121.329 73.8511 121.329 72.9217C121.329 71.7212 122.143 70.8305 123.072 70.2883C121.91 69.3976 121.291 68.1196 121.291 66.5706C121.291 63.4338 124.002 61.8847 128.455 61.8847H137.169V64.4019L134.729 64.3632C135.271 64.9054 135.658 65.6799 135.658 66.5319C135.658 69.6687 132.947 71.6437 128.455 71.6437C127.681 71.6437 126.984 71.605 126.325 71.4888C126.209 71.6437 126.132 71.8374 126.132 72.031C126.132 72.4957 126.596 72.5732 127.216 72.5732L129.539 72.6119ZM131.398 76.6782C131.398 76.0585 130.624 75.9036 128.959 75.9036H126.403C126.132 76.2134 126.015 76.4458 126.015 76.7169C126.015 77.6851 127.138 77.8012 128.416 77.8012C130.546 77.8012 131.398 77.5301 131.398 76.6782ZM126.596 66.5706C126.596 67.6162 127.255 68.1971 128.416 68.1971C129.617 68.1971 130.275 67.6162 130.275 66.5706C130.275 65.6412 129.617 65.099 128.416 65.099C127.255 65.0603 126.596 65.6412 126.596 66.5706Z" fill="#d6c1a1"/>
</g>
<mask id="mask13_126_3679" style="mask-type:luminance" maskUnits="userSpaceOnUse" x="0" y="0" width="151" height="90">
<path d="M150.374 0H0V90H150.374V0Z" fill="#d6c1a1"/>
</mask>
<g mask="url(#mask13_126_3679)">
<path d="M53.6745 57.1601H53.6357V60.8391H59.2898L53.6745 57.1601Z" fill="#d6c1a1"/>
</g>
<mask id="mask14_126_3679" style="mask-type:luminance" maskUnits="userSpaceOnUse" x="0" y="0" width="151" height="90">
<path d="M150.374 0H0V90H150.374V0Z" fill="#d6c1a1"/>
</mask>
<g mask="url(#mask14_126_3679)">
<path d="M27.5343 57.1601H27.4956V60.8391H33.1497L27.5343 57.1601Z" fill="#d6c1a1"/>
</g>
<mask id="mask15_126_3679" style="mask-type:luminance" maskUnits="userSpaceOnUse" x="0" y="0" width="151" height="90">
<path d="M150.374 0H0V90H150.374V0Z" fill="#d6c1a1"/>
</mask>
<g mask="url(#mask15_126_3679)">
<path d="M94.9183 57.1601H94.8408V60.8391H100.495L94.9183 57.1601Z" fill="#d6c1a1"/>
</g>
<mask id="mask16_126_3679" style="mask-type:luminance" maskUnits="userSpaceOnUse" x="0" y="0" width="151" height="90">
<path d="M150.374 0H0V90H150.374V0Z" fill="#d6c1a1"/>
</mask>
<g mask="url(#mask16_126_3679)">
<path d="M116.45 41.5146V29.3546L110.951 25.7143V36.5189L85.1982 13.3219L52.397 38.494L62.6207 38.4165L85.1982 21.2995L128.107 60.1807H137.169L116.45 41.5146Z" fill="#F3981F"/>
</g>
</g>
<defs>
<clipPath id="clip0_126_3679">
<rect width="150.374" height="90" fill="#d6c1a1"/>
</clipPath>
</defs>
</svg>