<svg width="153" height="66" viewBox="0 0 153 66" fill="none" xmlns="http://www.w3.org/2000/svg">
<path fill-rule="evenodd" clip-rule="evenodd" d="M0 0H152.514V42.5877C152.514 55.518 142.031 66 129.101 66H23.4123C10.482 66 0 55.518 0 42.5877V0Z" fill="#231F20"/>
<path fill-rule="evenodd" clip-rule="evenodd" d="M128.962 48.5569C130.358 48.5569 131.372 48.2228 132.246 47.6958V44.3042C131.645 44.637 130.96 44.8312 130.194 44.8312C129.263 44.8312 128.853 44.3599 128.853 43.386V37.0199H132.301V33.4055H128.853V29.5957H124.691V44.0814C124.691 47.5287 126.416 48.5569 128.962 48.5569" fill="#FEFEFE"/>
<path fill-rule="evenodd" clip-rule="evenodd" d="M105.242 44.9086C103.982 44.9086 103.107 44.2709 103.107 43.1833C103.107 41.856 104.136 41.1663 105.809 41.1663C106.761 41.1663 107.636 41.3788 108.304 41.6965V42.4121C108.304 43.8729 107.069 44.9086 105.242 44.9086M104.06 47.6958C105.964 47.6958 107.276 46.979 108.227 45.8901V45.9037C108.227 46.7441 108.892 47.4301 109.708 47.4301H112.009V39.1753C112.009 37.2633 111.547 35.6987 110.518 34.6358C109.54 33.6273 107.996 33.0439 105.861 33.0439C103.52 33.0439 102.027 33.4951 100.51 34.1847L101.487 37.2633C102.748 36.7863 103.803 36.4934 105.295 36.4934C107.25 36.4934 108.253 37.4228 108.253 39.0962V39.3336C107.276 38.9899 106.272 38.7515 104.882 38.7515C101.617 38.7515 99.3262 40.1839 99.3262 43.2885C99.3262 46.1558 101.462 47.6958 104.06 47.6958" fill="#FEFEFE"/>
<path fill-rule="evenodd" clip-rule="evenodd" d="M114.545 47.6958H118.525V42.3851C118.525 38.9517 120.147 37.3142 122.79 37.3142H123V33.0502C120.645 32.9428 119.337 34.2305 118.525 36.2152V34.8612C118.525 34.012 117.848 33.3187 117.018 33.3187H114.545V47.6958Z" fill="#FEFEFE"/>
<path fill-rule="evenodd" clip-rule="evenodd" d="M75.6504 47.6958H79.7351V39.6724C79.7351 37.74 80.6762 36.7475 82.2074 36.7475C83.7395 36.7475 84.5986 37.74 84.5986 39.6724V47.6958H88.6842V39.6724C88.6842 37.74 89.6244 36.7475 91.1573 36.7475C92.6886 36.7475 93.5485 37.74 93.5485 39.6724V47.6958H97.6341V38.3312C97.6341 34.8689 95.8069 33.0439 92.7698 33.0439C90.8073 33.0439 89.3023 33.8489 88.0382 35.3251C87.2874 33.8751 85.8627 33.0439 83.9814 33.0439C81.9115 33.0439 80.6762 34.1439 79.7351 35.3514V34.8201C79.7351 33.9889 79.0579 33.3127 78.225 33.3127H75.6504V47.6958Z" fill="#FEFEFE"/>
<path fill-rule="evenodd" clip-rule="evenodd" d="M19 48.2783H23.0667V42.4146H26.157C30.3036 42.4146 33.6309 40.071 33.6309 35.5472C33.6309 31.4988 30.9632 28.7344 26.5526 28.7344H19V48.2783ZM60.252 48.2783H64.2659V43.7272L65.6661 42.164L69.3632 48.2783H73.9591L68.3867 39.2048L73.774 33.3139H68.9676L64.2659 38.7582V29.6042H60.252V48.2783ZM50.0059 48.2784H54.021V42.7496C54.021 39.1764 55.6583 37.4741 58.326 37.4741H58.536V33.0348C56.1594 32.9231 54.8391 34.2631 54.021 36.3289V34.9188C54.021 34.0346 53.3382 33.314 52.5017 33.314H50.0059V48.2784ZM39.1773 48.5576C41.1326 48.5576 42.4788 47.8045 43.4565 46.6592V46.6735C43.4565 47.5565 44.1382 48.2784 44.9746 48.2784H47.339V39.5958C47.339 37.5858 46.8637 35.9381 45.8061 34.8215C44.8026 33.7594 43.2182 33.1465 41.027 33.1465C38.6234 33.1465 37.0917 33.6204 35.533 34.3476L36.5365 37.5858C37.8311 37.0834 38.9132 36.7769 40.4449 36.7769C42.453 36.7769 43.4823 37.7533 43.4823 39.5114V39.762C42.4788 39.3997 41.4495 39.1492 40.0223 39.1492C36.6692 39.1492 34.3184 40.6566 34.3184 43.9235C34.3184 46.9385 36.5107 48.5576 39.1773 48.5576V48.5576ZM40.3935 45.6255C39.099 45.6255 38.2012 44.9555 38.2012 43.8116C38.2012 42.4144 39.2574 41.6899 40.9745 41.6899C41.951 41.6899 42.8489 41.9133 43.5354 42.247V43.0027C43.5354 44.5374 42.2679 45.6255 40.3935 45.6255V45.6255ZM23.0664 38.5906V32.6152H26.2096C28.2423 32.6152 29.5111 33.6474 29.5111 35.5756C29.5111 37.3064 28.3221 38.5906 26.2881 38.5906H23.0664Z" fill="#71BE44"/>
<path fill-rule="evenodd" clip-rule="evenodd" d="M70.5762 14.5131C70.5762 10.5365 72.3822 6.97863 75.2274 4.60156C78.0709 6.97863 79.877 10.5365 79.877 14.5131C79.877 18.4897 78.0709 22.0464 75.2274 24.4247C72.3822 22.0464 70.5762 18.4897 70.5762 14.5131" fill="#FEFEFE"/>
<path fill-rule="evenodd" clip-rule="evenodd" d="M83.4518 15.1407C85.4743 13.0801 88.1918 12.1637 90.8357 12.3928C91.059 15.0861 90.161 17.8582 88.1385 19.9187C86.1177 21.9793 83.3976 22.8957 80.7562 22.6666C80.5321 19.9733 81.4301 17.2012 83.4518 15.1407" fill="#71BE44"/>
<path fill-rule="evenodd" clip-rule="evenodd" d="M67.8486 15.1407C65.8271 13.0801 63.1075 12.1637 60.4654 12.3928C60.2406 15.0861 61.1396 17.8582 63.1611 19.9187C65.1825 21.9793 67.9021 22.8957 70.544 22.6666C70.7689 19.9733 69.8701 17.2012 67.8486 15.1407" fill="#71BE44"/>
<path fill-rule="evenodd" clip-rule="evenodd" d="M70.5762 14.5137C70.5762 10.537 72.3831 6.9788 75.2266 4.60156C78.0709 6.9788 79.877 10.537 79.877 14.5137C79.877 18.4905 78.0709 22.0487 75.2266 24.4247C72.3831 22.0487 70.5762 18.4905 70.5762 14.5137" fill="#FEFEFE"/>
<path fill-rule="evenodd" clip-rule="evenodd" d="M112.382 58.8335H112.931V55.0877H114.547V54.6499H110.767V55.0877H112.382V58.8335ZM104.24 58.8334H107.752V58.4043H104.783V56.9396H107.408V56.5094H104.783V55.0812H107.717V54.6499H104.24V58.8334ZM97.0332 58.8334H97.5752V57.7107L98.6 56.8073L100.448 58.8334H101.127L98.9771 56.4792L101.038 54.6499H100.338L97.5752 57.1493V54.6499H97.0332V58.8334ZM90.34 56.7847V55.0877H91.8247C92.6017 55.0877 93.0541 55.3985 93.0541 55.9115C93.0541 56.461 92.5383 56.7847 91.8179 56.7847H90.34ZM89.7988 58.8334H90.3417V57.2085H91.7165L93.1116 58.8334H93.7779L92.2999 57.1245C93.0558 57.0051 93.6045 56.5987 93.6045 55.905C93.6045 55.5651 93.4684 55.2715 93.235 55.0683C92.9332 54.8058 92.4589 54.6499 91.8678 54.6499H89.7988V58.8334ZM83.0312 57.3041L84.1296 55.1704L85.2229 57.3041H83.0312ZM81.6914 58.8337H82.2478L82.8193 57.7292H85.4362L85.9994 58.8337H86.5836L84.392 54.6211H83.8839L81.6914 58.8337ZM73.8711 58.8334H74.4004V55.4511L76.1523 57.687H76.1794L77.933 55.4458V58.8334H78.4741V54.6499H77.9254L76.1735 56.9331L74.4215 54.6499H73.8711V58.8334ZM67.1816 56.7849V55.0879H68.6653C69.4417 55.0879 69.8954 55.3987 69.8954 55.9117C69.8954 56.4612 69.3798 56.7849 68.6578 56.7849H67.1816ZM66.6387 58.8334H67.1815V57.2085H68.5551L69.9494 58.8334H70.6157L69.1386 57.1245C69.8953 57.0051 70.444 56.5987 70.444 55.905C70.444 55.5651 70.3071 55.2715 70.0737 55.0683C69.7719 54.8058 69.2969 54.6499 68.7059 54.6499H66.6387V58.8334ZM59.7676 58.8334H63.2776V58.4043H60.3103V56.9396H62.9339V56.5094H60.3103V55.0812H63.243V54.6499H59.7676V58.8334ZM53.4551 56.928V55.0879H54.6704C55.4469 55.0879 55.9624 55.3987 55.9624 55.9955C55.9624 56.557 55.4407 56.928 54.6432 56.928H53.4551ZM52.9102 58.8334H53.4529V57.3579H54.6212C55.6437 57.3579 56.5104 56.8912 56.5104 55.9888C56.5104 55.1521 55.7959 54.6499 54.7103 54.6499H52.9102V58.8334ZM47.3508 58.9002C48.5538 58.9002 49.3574 58.2667 49.3574 57.0471V54.6499H48.8147V57.0826C48.8147 57.9979 48.2509 58.4635 47.3657 58.4635C46.4446 58.4635 45.8944 57.9559 45.8944 57.0536V54.6499H45.3516V57.0826C45.3516 58.2667 46.1627 58.9002 47.3508 58.9002V58.9002ZM40.4139 58.8937C41.3683 58.8937 42.0557 58.4269 42.0557 57.7107C42.0557 57.059 41.5612 56.7181 40.4893 56.5159C39.431 56.318 39.1836 56.0964 39.1836 55.7028C39.1836 55.3146 39.5818 55.0145 40.2074 55.0145C40.702 55.0145 41.1482 55.1522 41.5958 55.4694L41.9111 55.1048C41.4228 54.764 40.922 54.5908 40.2209 54.5908C39.3073 54.5908 38.6409 55.0748 38.6409 55.7319C38.6409 56.432 39.1491 56.7428 40.2556 56.9514C41.2658 57.1365 41.5055 57.358 41.5055 57.7462C41.5055 58.171 41.0802 58.4689 40.4337 58.4689C39.7685 58.4689 39.2863 58.2732 38.7856 57.8774L38.4492 58.2247C39.0254 58.6733 39.6511 58.8937 40.4139 58.8937V58.8937Z" fill="#FEFEFE"/>
</svg>
